<?xml version="1.0" encoding="UTF-8" standalone="no"?>
<!DOCTYPE svg PUBLIC "-//W3C//DTD SVG 1.1//EN"
 "http://www.w3.org/Graphics/SVG/1.1/DTD/svg11.dtd">
<!-- Generated by graphviz version 2.40.1 (20161225.0304)
 -->
<!-- Title: graphname Pages: 1 -->
<svg width="797pt" height="375pt"
 viewBox="0.00 0.00 796.75 375.15" xmlns="http://www.w3.org/2000/svg" xmlns:xlink="http://www.w3.org/1999/xlink">
<g id="graph0" class="graph" transform="scale(1 1) rotate(0) translate(4 371.1536)">
<title>graphname</title>
<polygon fill="#ffffff" stroke="transparent" points="-4,4 -4,-371.1536 792.7476,-371.1536 792.7476,4 -4,4"/>
<text text-anchor="middle" x="394.3738" y="-351.9536" font-family="Times,serif" font-size="14.00" fill="#000000">ma&#45;vis@9c9710aa2213a663261572dccc593d47e44226a6</text>
<!-- FSLASH1 -->
<g id="node1" class="node">
<title>FSLASH1</title>
<ellipse fill="none" stroke="#000000" cx="27" cy="-83.6769" rx="27" ry="18"/>
<text text-anchor="middle" x="27" y="-79.9769" font-family="Times,serif" font-size="14.00" fill="#000000">/1</text>
</g>
<!-- create_glworb -->
<g id="node2" class="node">
<title>create_glworb</title>
<ellipse fill="none" stroke="#000000" cx="247.0946" cy="-53.6769" rx="61.1893" ry="18"/>
<text text-anchor="middle" x="247.0946" y="-49.9769" font-family="Times,serif" font-size="14.00" fill="#000000">create_glworb</text>
</g>
<!-- FSLASH1&#45;&gt;create_glworb -->
<g id="edge1" class="edge">
<title>FSLASH1&#45;&gt;create_glworb</title>
<path fill="none" stroke="#000000" d="M53.3142,-88.3687C81.8847,-92.5958 128.6973,-96.9843 168,-88.6769 182.0487,-85.7074 196.638,-80.0729 209.4038,-74.1785"/>
<polygon fill="#000000" stroke="#000000" points="211.2848,-77.1572 218.7713,-69.6603 208.2437,-70.8523 211.2848,-77.1572"/>
<text text-anchor="middle" x="120" y="-97.4769" font-family="Times,serif" font-size="14.00" fill="#000000">T x T capture3</text>
</g>
<!-- FSLASH1&#45;&gt;create_glworb -->
<g id="edge6" class="edge">
<title>FSLASH1&#45;&gt;create_glworb</title>
<path fill="none" stroke="#000000" d="M51.047,-75.1715C57.756,-73.0802 65.0988,-71.0498 72,-69.6769 105.9034,-62.9323 144.0747,-59.0238 176.1037,-56.7622"/>
<polygon fill="#000000" stroke="#000000" points="176.5287,-60.2417 186.2737,-56.0842 176.063,-53.2572 176.5287,-60.2417"/>
<text text-anchor="middle" x="120" y="-73.4769" font-family="Times,serif" font-size="14.00" fill="#000000">T x T capture1</text>
</g>
<!-- rpccreate_glworb -->
<g id="node14" class="node">
<title>rpccreate_glworb</title>
<ellipse fill="none" stroke="#000000" stroke-dasharray="1,5" cx="546.6572" cy="-53.6769" rx="66.4361" ry="37.4533"/>
<text text-anchor="middle" x="546.6572" y="-64.9769" font-family="Times,serif" font-size="14.00" fill="#000000">create_glworb</text>
<text text-anchor="middle" x="546.6572" y="-49.9769" font-family="Times,serif" font-size="14.00" fill="#000000">xxx.xxx.x.x</text>
<text text-anchor="middle" x="546.6572" y="-34.9769" font-family="Times,serif" font-size="14.00" fill="#000000">xxxxx</text>
</g>
<!-- create_glworb&#45;&gt;rpccreate_glworb -->
<g id="edge14" class="edge">
<title>create_glworb&#45;&gt;rpccreate_glworb</title>
<path fill="none" stroke="#000000" stroke-dasharray="1,5" d="M308.4384,-53.6769C355.1195,-53.6769 419.6562,-53.6769 469.7836,-53.6769"/>
<polygon fill="#000000" stroke="#000000" points="469.9282,-57.177 479.9282,-53.6769 469.9282,-50.177 469.9282,-57.177"/>
<text text-anchor="middle" x="394.1892" y="-57.4769" font-family="Times,serif" font-size="14.00" fill="#000000">rpc</text>
</g>
<!-- FSLASHbar -->
<g id="node3" class="node">
<title>FSLASHbar</title>
<ellipse fill="none" stroke="#000000" cx="27" cy="-213.6769" rx="27" ry="18"/>
<text text-anchor="middle" x="27" y="-209.9769" font-family="Times,serif" font-size="14.00" fill="#000000">/bar</text>
</g>
<!-- something -->
<g id="node4" class="node">
<title>something</title>
<ellipse fill="none" stroke="#000000" cx="247.0946" cy="-186.6769" rx="48.1917" ry="18"/>
<text text-anchor="middle" x="247.0946" y="-182.9769" font-family="Times,serif" font-size="14.00" fill="#000000">something</text>
</g>
<!-- FSLASHbar&#45;&gt;something -->
<g id="edge2" class="edge">
<title>FSLASHbar&#45;&gt;something</title>
<path fill="none" stroke="#000000" d="M54.1365,-212.5416C82.6059,-211.1212 128.6054,-208.1773 168,-202.6769 177.0688,-201.4107 186.6625,-199.7481 195.922,-197.9741"/>
<polygon fill="#000000" stroke="#000000" points="196.6679,-201.3944 205.7976,-196.0188 195.3083,-194.5277 196.6679,-201.3944"/>
<text text-anchor="middle" x="120" y="-214.4769" font-family="Times,serif" font-size="14.00" fill="#000000">1.0&lt; x &lt;=4.0 </text>
</g>
<!-- FSLASHbar&#45;&gt;something -->
<g id="edge3" class="edge">
<title>FSLASHbar&#45;&gt;something</title>
<path fill="none" stroke="#000000" d="M43.7205,-199.0889C51.7111,-193.0671 61.7553,-186.7787 72,-183.6769 111.4612,-171.729 158.2498,-173.2815 193.5288,-177.3839"/>
<polygon fill="#000000" stroke="#000000" points="193.261,-180.8779 203.6217,-178.6628 194.141,-173.9334 193.261,-180.8779"/>
<text text-anchor="middle" x="120" y="-187.4769" font-family="Times,serif" font-size="14.00" fill="#000000">1.0&lt; x &lt;4.0 </text>
</g>
<!-- FSLASH2 -->
<g id="node5" class="node">
<title>FSLASH2</title>
<ellipse fill="none" stroke="#000000" cx="27" cy="-18.6769" rx="27" ry="18"/>
<text text-anchor="middle" x="27" y="-14.9769" font-family="Times,serif" font-size="14.00" fill="#000000">/2</text>
</g>
<!-- FSLASH2&#45;&gt;create_glworb -->
<g id="edge4" class="edge">
<title>FSLASH2&#45;&gt;create_glworb</title>
<path fill="none" stroke="#000000" d="M53.5634,-22.07C81.95,-25.7834 128.2414,-32.0908 168,-38.6769 173.83,-39.6426 179.8917,-40.6986 185.9497,-41.7885"/>
<polygon fill="#000000" stroke="#000000" points="185.633,-45.2886 196.0996,-43.6451 186.8926,-38.4028 185.633,-45.2886"/>
<text text-anchor="middle" x="120" y="-42.4769" font-family="Times,serif" font-size="14.00" fill="#000000">T x T capture2</text>
</g>
<!-- FSLASH2&#45;&gt;create_glworb -->
<g id="edge7" class="edge">
<title>FSLASH2&#45;&gt;create_glworb</title>
<path fill="none" stroke="#000000" d="M51.5248,-10.9001C58.1059,-9.1547 65.2657,-7.5594 72,-6.6769 114.305,-1.1331 126.8573,4.6247 168,-6.6769 185.6023,-11.5121 203.251,-21.3966 217.3969,-30.8588"/>
<polygon fill="#000000" stroke="#000000" points="215.5121,-33.8111 225.7204,-36.6468 219.5085,-28.064 215.5121,-33.8111"/>
<text text-anchor="middle" x="120" y="-10.4769" font-family="Times,serif" font-size="14.00" fill="#000000">T x T capture4</text>
</g>
<!-- FSLASHbaz -->
<g id="node6" class="node">
<title>FSLASHbaz</title>
<ellipse fill="none" stroke="#000000" cx="27" cy="-306.6769" rx="27" ry="18"/>
<text text-anchor="middle" x="27" y="-302.9769" font-family="Times,serif" font-size="14.00" fill="#000000">/baz</text>
</g>
<!-- foo -->
<g id="node7" class="node">
<title>foo</title>
<ellipse fill="none" stroke="#000000" cx="247.0946" cy="-306.6769" rx="27" ry="18"/>
<text text-anchor="middle" x="247.0946" y="-302.9769" font-family="Times,serif" font-size="14.00" fill="#000000">foo</text>
</g>
<!-- FSLASHbaz&#45;&gt;foo -->
<g id="edge5" class="edge">
<title>FSLASHbaz&#45;&gt;foo</title>
<path fill="none" stroke="#000000" d="M54.4301,-306.6769C93.6892,-306.6769 166.0068,-306.6769 210.0058,-306.6769"/>
<polygon fill="#000000" stroke="#000000" points="210.0102,-310.177 220.0102,-306.6769 210.0101,-303.177 210.0102,-310.177"/>
<text text-anchor="middle" x="120" y="-310.4769" font-family="Times,serif" font-size="14.00" fill="#000000">1.0&lt; x &lt;=4.0 foo</text>
</g>
<!-- img_rotate -->
<g id="node9" class="node">
<title>img_rotate</title>
<ellipse fill="none" stroke="#000000" cx="546.6572" cy="-306.6769" rx="49.2915" ry="18"/>
<text text-anchor="middle" x="546.6572" y="-302.9769" font-family="Times,serif" font-size="14.00" fill="#000000">img_rotate</text>
</g>
<!-- foo&#45;&gt;img_rotate -->
<g id="edge9" class="edge">
<title>foo&#45;&gt;img_rotate</title>
<path fill="none" stroke="#000000" d="M274.2071,-306.6769C322.0556,-306.6769 422.522,-306.6769 487.1746,-306.6769"/>
<polygon fill="#000000" stroke="#000000" points="487.2299,-310.177 497.2299,-306.6769 487.2298,-303.177 487.2299,-310.177"/>
<text text-anchor="middle" x="394.1892" y="-310.4769" font-family="Times,serif" font-size="14.00" fill="#000000">[90.0]</text>
</g>
<!-- FSLASHfoo -->
<g id="node8" class="node">
<title>FSLASHfoo</title>
<ellipse fill="none" stroke="#000000" cx="27" cy="-148.6769" rx="27" ry="18"/>
<text text-anchor="middle" x="27" y="-144.9769" font-family="Times,serif" font-size="14.00" fill="#000000">/foo</text>
</g>
<!-- FSLASHfoo&#45;&gt;something -->
<g id="edge8" class="edge">
<title>FSLASHfoo&#45;&gt;something</title>
<path fill="none" stroke="#000000" d="M54.1041,-147.4491C82.7431,-146.7471 129.0604,-147.3133 168,-155.6769 181.4443,-158.5645 195.5869,-163.4606 208.1359,-168.5193"/>
<polygon fill="#000000" stroke="#000000" points="206.8076,-171.7575 217.3836,-172.3887 209.5096,-165.2999 206.8076,-171.7575"/>
<text text-anchor="middle" x="120" y="-159.4769" font-family="Times,serif" font-size="14.00" fill="#000000">T x &gt;2.0 </text>
</g>
<!-- rpcimg_rotate -->
<g id="node13" class="node">
<title>rpcimg_rotate</title>
<ellipse fill="none" stroke="#000000" stroke-dasharray="1,5" cx="727.9364" cy="-306.6769" rx="57.9655" ry="37.4533"/>
<text text-anchor="middle" x="727.9364" y="-317.9769" font-family="Times,serif" font-size="14.00" fill="#000000">img_rotate</text>
<text text-anchor="middle" x="727.9364" y="-302.9769" font-family="Times,serif" font-size="14.00" fill="#000000">xxx.xxx.x.x</text>
<text text-anchor="middle" x="727.9364" y="-287.9769" font-family="Times,serif" font-size="14.00" fill="#000000">xxxxx</text>
</g>
<!-- img_rotate&#45;&gt;rpcimg_rotate -->
<g id="edge13" class="edge">
<title>img_rotate&#45;&gt;rpcimg_rotate</title>
<path fill="none" stroke="#000000" stroke-dasharray="1,5" d="M596.1925,-306.6769C615.7419,-306.6769 638.5277,-306.6769 659.599,-306.6769"/>
<polygon fill="#000000" stroke="#000000" points="659.7837,-310.177 669.7837,-306.6769 659.7837,-303.177 659.7837,-310.177"/>
<text text-anchor="middle" x="640.1252" y="-310.4769" font-family="Times,serif" font-size="14.00" fill="#000000">rpc</text>
</g>
<!-- bar -->
<g id="node10" class="node">
<title>bar</title>
<ellipse fill="none" stroke="#000000" cx="247.0946" cy="-240.6769" rx="27" ry="18"/>
<text text-anchor="middle" x="247.0946" y="-236.9769" font-family="Times,serif" font-size="14.00" fill="#000000">bar</text>
</g>
<!-- bar&#45;&gt;img_rotate -->
<g id="edge10" class="edge">
<title>bar&#45;&gt;img_rotate</title>
<path fill="none" stroke="#000000" d="M272.9312,-246.2689C313.3281,-255.0244 393.8979,-272.5353 462.1892,-287.6769 472.6425,-289.9946 483.8186,-292.4936 494.5058,-294.8936"/>
<polygon fill="#000000" stroke="#000000" points="494.0387,-298.3759 504.563,-297.155 495.5745,-291.5464 494.0387,-298.3759"/>
<text text-anchor="middle" x="394.1892" y="-291.4769" font-family="Times,serif" font-size="14.00" fill="#000000">[90.0]</text>
</g>
<!-- img_overlay -->
<g id="node11" class="node">
<title>img_overlay</title>
<ellipse fill="none" stroke="#000000" cx="546.6572" cy="-213.6769" rx="55.7903" ry="18"/>
<text text-anchor="middle" x="546.6572" y="-209.9769" font-family="Times,serif" font-size="14.00" fill="#000000">img_overlay</text>
</g>
<!-- bar&#45;&gt;img_overlay -->
<g id="edge11" class="edge">
<title>bar&#45;&gt;img_overlay</title>
<path fill="none" stroke="#000000" d="M272.1717,-233.7337C287.6191,-229.7666 307.9019,-225.1102 326.1892,-222.6769 377.6907,-215.8242 436.503,-213.7064 480.4242,-213.2299"/>
<polygon fill="#000000" stroke="#000000" points="480.7182,-216.7276 490.689,-213.1453 480.6604,-209.7279 480.7182,-216.7276"/>
<text text-anchor="middle" x="394.1892" y="-226.4769" font-family="Times,serif" font-size="14.00" fill="#000000">[&#39;hello&#39;, 10.0, 10.0, 20.0]</text>
</g>
<!-- rpcimg_overlay -->
<g id="node12" class="node">
<title>rpcimg_overlay</title>
<ellipse fill="none" stroke="#000000" stroke-dasharray="1,5" cx="727.9364" cy="-213.6769" rx="60.623" ry="37.4533"/>
<text text-anchor="middle" x="727.9364" y="-224.9769" font-family="Times,serif" font-size="14.00" fill="#000000">img_overlay</text>
<text text-anchor="middle" x="727.9364" y="-209.9769" font-family="Times,serif" font-size="14.00" fill="#000000">xxx.xxx.x.x</text>
<text text-anchor="middle" x="727.9364" y="-194.9769" font-family="Times,serif" font-size="14.00" fill="#000000">xxxxx</text>
</g>
<!-- img_overlay&#45;&gt;rpcimg_overlay -->
<g id="edge12" class="edge">
<title>img_overlay&#45;&gt;rpcimg_overlay</title>
<path fill="none" stroke="#000000" stroke-dasharray="1,5" d="M603.0214,-213.6769C619.9637,-213.6769 638.7796,-213.6769 656.5589,-213.6769"/>
<polygon fill="#000000" stroke="#000000" points="656.8854,-217.177 666.8853,-213.6769 656.8853,-210.177 656.8854,-217.177"/>
<text text-anchor="middle" x="640.1252" y="-217.4769" font-family="Times,serif" font-size="14.00" fill="#000000">rpc</text>
</g>
</g>
</svg>
