<?xml version="1.0" encoding="UTF-8" standalone="no"?>
<!DOCTYPE svg PUBLIC "-//W3C//DTD SVG 1.1//EN"
 "http://www.w3.org/Graphics/SVG/1.1/DTD/svg11.dtd">
<!-- Generated by graphviz version 2.40.1 (20161225.0304)
 -->
<!-- Title: graphname Pages: 1 -->
<svg width="957pt" height="694pt"
 viewBox="0.00 0.00 957.44 694.48" xmlns="http://www.w3.org/2000/svg" xmlns:xlink="http://www.w3.org/1999/xlink">
<g id="graph0" class="graph" transform="scale(1 1) rotate(0) translate(4 690.4767)">
<title>graphname</title>
<polygon fill="#ffffff" stroke="transparent" points="-4,4 -4,-690.4767 953.4407,-690.4767 953.4407,4 -4,4"/>
<text text-anchor="middle" x="474.7203" y="-671.2767" font-family="Times,serif" font-size="14.00" fill="#000000">ma&#45;vis@e4c958a219492299b7934e0d3c7b6323f59ef5d7</text>
<g id="clust1" class="cluster">
<title>cluster_key</title>
<polygon fill="none" stroke="#000000" points="8,-434.4767 8,-655.4767 767.3457,-655.4767 767.3457,-434.4767 8,-434.4767"/>
<text text-anchor="middle" x="387.6728" y="-640.2767" font-family="Times,serif" font-size="14.00" fill="#000000">Key</text>
</g>
<!-- FSLASHbaz -->
<g id="node1" class="node">
<title>FSLASHbaz</title>
<ellipse fill="#b0e2ff" stroke="#000000" cx="49.9411" cy="-129.4767" rx="27" ry="18"/>
<text text-anchor="middle" x="49.9411" y="-125.7767" font-family="Times,serif" font-size="14.00" fill="#000000">/baz</text>
</g>
<!-- foo -->
<g id="node2" class="node">
<title>foo</title>
<ellipse fill="#8db6cd" stroke="#000000" cx="342.3823" cy="-129.4767" rx="27" ry="18"/>
<text text-anchor="middle" x="342.3823" y="-125.7767" font-family="Times,serif" font-size="14.00" fill="#000000">foo</text>
</g>
<!-- FSLASHbaz&#45;&gt;foo -->
<g id="edge1" class="edge">
<title>FSLASHbaz&#45;&gt;foo</title>
<path fill="none" stroke="#b0e2ff" d="M77.1907,-129.4767C129.7594,-129.4767 245.2441,-129.4767 304.9666,-129.4767"/>
<polygon fill="#b0e2ff" stroke="#b0e2ff" points="305.0954,-132.9768 315.0953,-129.4767 305.0953,-125.9768 305.0954,-132.9768"/>
<text text-anchor="middle" x="149.8823" y="-133.2767" font-family="Times,serif" font-size="14.00" fill="#000000">1.0&lt; x &lt;=4.0 foo</text>
</g>
<!-- img_rotate -->
<g id="node10" class="node">
<title>img_rotate</title>
<ellipse fill="none" stroke="#000000" cx="707.3503" cy="-129.4767" rx="49.2915" ry="18"/>
<text text-anchor="middle" x="707.3503" y="-125.7767" font-family="Times,serif" font-size="14.00" fill="#000000">img_rotate</text>
</g>
<!-- foo&#45;&gt;img_rotate -->
<g id="edge11" class="edge">
<title>foo&#45;&gt;img_rotate</title>
<path fill="none" stroke="#000000" d="M369.516,-129.4767C428.0135,-129.4767 567.1886,-129.4767 647.4669,-129.4767"/>
<polygon fill="#000000" stroke="#000000" points="647.9111,-132.9768 657.9111,-129.4767 647.9111,-125.9768 647.9111,-132.9768"/>
<text text-anchor="middle" x="554.8823" y="-133.2767" font-family="Times,serif" font-size="14.00" fill="#000000">[90.0]</text>
</g>
<!-- FSLASHbar -->
<g id="node3" class="node">
<title>FSLASHbar</title>
<ellipse fill="#b0e2ff" stroke="#000000" cx="49.9411" cy="-248.4767" rx="27" ry="18"/>
<text text-anchor="middle" x="49.9411" y="-244.7767" font-family="Times,serif" font-size="14.00" fill="#000000">/bar</text>
</g>
<!-- something -->
<g id="node4" class="node">
<title>something</title>
<ellipse fill="none" stroke="#000000" cx="342.3823" cy="-221.4767" rx="48.1917" ry="18"/>
<text text-anchor="middle" x="342.3823" y="-217.7767" font-family="Times,serif" font-size="14.00" fill="#000000">something</text>
</g>
<!-- FSLASHbar&#45;&gt;something -->
<g id="edge2" class="edge">
<title>FSLASHbar&#45;&gt;something</title>
<path fill="none" stroke="#b0e2ff" d="M76.9613,-246.7612C106.6392,-244.8085 155.6952,-241.3794 197.8823,-237.4767 227.188,-234.7656 259.7758,-231.2048 286.576,-228.1308"/>
<polygon fill="#b0e2ff" stroke="#b0e2ff" points="287.0128,-231.6037 296.5451,-226.9792 286.2095,-224.6499 287.0128,-231.6037"/>
<text text-anchor="middle" x="149.8823" y="-249.2767" font-family="Times,serif" font-size="14.00" fill="#000000">1.0&lt; x &lt;4.0 </text>
</g>
<!-- FSLASHbar&#45;&gt;something -->
<g id="edge5" class="edge">
<title>FSLASHbar&#45;&gt;something</title>
<path fill="none" stroke="#b0e2ff" d="M68.1236,-234.8115C77.6448,-228.506 89.812,-221.712 101.8823,-218.4767 164.2006,-201.7728 238.9027,-206.3251 288.3388,-212.56"/>
<polygon fill="#b0e2ff" stroke="#b0e2ff" points="288.117,-216.0612 298.4909,-213.9089 289.0391,-209.1222 288.117,-216.0612"/>
<text text-anchor="middle" x="149.8823" y="-222.2767" font-family="Times,serif" font-size="14.00" fill="#000000">1.0&lt; x &lt;=4.0 </text>
</g>
<!-- FSLASH2 -->
<g id="node5" class="node">
<title>FSLASH2</title>
<ellipse fill="#b0e2ff" stroke="#000000" cx="49.9411" cy="-385.4767" rx="27" ry="18"/>
<text text-anchor="middle" x="49.9411" y="-381.7767" font-family="Times,serif" font-size="14.00" fill="#000000">/2</text>
</g>
<!-- create_glworb -->
<g id="node6" class="node">
<title>create_glworb</title>
<ellipse fill="none" stroke="#000000" cx="342.3823" cy="-354.4767" rx="61.1893" ry="18"/>
<text text-anchor="middle" x="342.3823" y="-350.7767" font-family="Times,serif" font-size="14.00" fill="#000000">create_glworb</text>
</g>
<!-- FSLASH2&#45;&gt;create_glworb -->
<g id="edge3" class="edge">
<title>FSLASH2&#45;&gt;create_glworb</title>
<path fill="none" stroke="#b0e2ff" d="M76.8768,-387.9466C84.914,-388.5767 93.7484,-389.1639 101.8823,-389.4767 144.5174,-391.1159 155.5164,-394.5343 197.8823,-389.4767 229.041,-385.7569 263.193,-377.677 290.4687,-370.217"/>
<polygon fill="#b0e2ff" stroke="#b0e2ff" points="291.4964,-373.564 300.1882,-367.5058 289.6155,-366.8214 291.4964,-373.564"/>
<text text-anchor="middle" x="149.8823" y="-396.2767" font-family="Times,serif" font-size="14.00" fill="#000000">T x T capture2</text>
</g>
<!-- FSLASH2&#45;&gt;create_glworb -->
<g id="edge4" class="edge">
<title>FSLASH2&#45;&gt;create_glworb</title>
<path fill="none" stroke="#b0e2ff" d="M74.2598,-377.2844C82.8886,-374.6907 92.73,-372.0834 101.8823,-370.4767 158.2533,-360.5804 223.038,-356.6916 271.1559,-355.2158"/>
<polygon fill="#b0e2ff" stroke="#b0e2ff" points="271.2634,-358.7143 281.1617,-354.9362 271.0678,-351.717 271.2634,-358.7143"/>
<text text-anchor="middle" x="149.8823" y="-374.2767" font-family="Times,serif" font-size="14.00" fill="#000000">T x T capture4</text>
</g>
<!-- rpccreate_glworb -->
<g id="node14" class="node">
<title>rpccreate_glworb</title>
<ellipse fill="none" stroke="#000000" stroke-dasharray="1,5" cx="707.3503" cy="-354.4767" rx="66.4361" ry="37.4533"/>
<text text-anchor="middle" x="707.3503" y="-365.7767" font-family="Times,serif" font-size="14.00" fill="#000000">create_glworb</text>
<text text-anchor="middle" x="707.3503" y="-350.7767" font-family="Times,serif" font-size="14.00" fill="#000000">xxx.xxx.x.x</text>
<text text-anchor="middle" x="707.3503" y="-335.7767" font-family="Times,serif" font-size="14.00" fill="#000000">xxxxx</text>
</g>
<!-- create_glworb&#45;&gt;rpccreate_glworb -->
<g id="edge14" class="edge">
<title>create_glworb&#45;&gt;rpccreate_glworb</title>
<path fill="none" stroke="#000000" stroke-dasharray="1,5" d="M403.8814,-354.4767C466.295,-354.4767 563.0744,-354.4767 630.5038,-354.4767"/>
<polygon fill="#000000" stroke="#000000" points="630.6476,-357.9768 640.6475,-354.4767 630.6475,-350.9768 630.6476,-357.9768"/>
<text text-anchor="middle" x="554.8823" y="-358.2767" font-family="Times,serif" font-size="14.00" fill="#000000">rpc</text>
</g>
<!-- FSLASH1 -->
<g id="node7" class="node">
<title>FSLASH1</title>
<ellipse fill="#b0e2ff" stroke="#000000" cx="49.9411" cy="-323.4767" rx="27" ry="18"/>
<text text-anchor="middle" x="49.9411" y="-319.7767" font-family="Times,serif" font-size="14.00" fill="#000000">/1</text>
</g>
<!-- FSLASH1&#45;&gt;create_glworb -->
<g id="edge6" class="edge">
<title>FSLASH1&#45;&gt;create_glworb</title>
<path fill="none" stroke="#b0e2ff" d="M76.6686,-326.3099C121.1458,-331.0247 211.6759,-340.6212 274.6309,-347.2947"/>
<polygon fill="#b0e2ff" stroke="#b0e2ff" points="274.5627,-350.807 284.8759,-348.3807 275.3006,-343.846 274.5627,-350.807"/>
<text text-anchor="middle" x="149.8823" y="-343.2767" font-family="Times,serif" font-size="14.00" fill="#000000">T x T capture3</text>
</g>
<!-- FSLASH1&#45;&gt;create_glworb -->
<g id="edge8" class="edge">
<title>FSLASH1&#45;&gt;create_glworb</title>
<path fill="none" stroke="#b0e2ff" d="M74.5426,-316.0067C83.1101,-313.7572 92.8409,-311.5909 101.8823,-310.4767 144.2285,-305.2579 155.6807,-304.1939 197.8823,-310.4767 231.5259,-315.4853 268.1722,-326.7139 296.1417,-336.5737"/>
<polygon fill="#b0e2ff" stroke="#b0e2ff" points="295.0593,-339.9038 305.6538,-339.9917 297.4265,-333.3162 295.0593,-339.9038"/>
<text text-anchor="middle" x="149.8823" y="-314.2767" font-family="Times,serif" font-size="14.00" fill="#000000">T x T capture1</text>
</g>
<!-- FSLASHfoo -->
<g id="node8" class="node">
<title>FSLASHfoo</title>
<ellipse fill="#b0e2ff" stroke="#000000" cx="49.9411" cy="-183.4767" rx="27" ry="18"/>
<text text-anchor="middle" x="49.9411" y="-179.7767" font-family="Times,serif" font-size="14.00" fill="#000000">/foo</text>
</g>
<!-- FSLASHfoo&#45;&gt;something -->
<g id="edge7" class="edge">
<title>FSLASHfoo&#45;&gt;something</title>
<path fill="none" stroke="#b0e2ff" d="M77.0626,-182.8496C106.8283,-182.52 155.9597,-183.0319 197.8823,-188.4767 230.2686,-192.6829 266.058,-200.8292 293.9165,-207.9751"/>
<polygon fill="#b0e2ff" stroke="#b0e2ff" points="293.2407,-211.4159 303.8003,-210.5534 295.0076,-204.6425 293.2407,-211.4159"/>
<text text-anchor="middle" x="149.8823" y="-192.2767" font-family="Times,serif" font-size="14.00" fill="#000000">T x &gt;2.0 </text>
</g>
<!-- bar -->
<g id="node9" class="node">
<title>bar</title>
<ellipse fill="#8db6cd" stroke="#000000" cx="342.3823" cy="-64.4767" rx="27" ry="18"/>
<text text-anchor="middle" x="342.3823" y="-60.7767" font-family="Times,serif" font-size="14.00" fill="#000000">bar</text>
</g>
<!-- bar&#45;&gt;img_rotate -->
<g id="edge9" class="edge">
<title>bar&#45;&gt;img_rotate</title>
<path fill="none" stroke="#000000" d="M369.1616,-68.333C419.1756,-75.6539 530.1148,-92.4528 622.8823,-110.4767 633.6143,-112.5618 645.0665,-114.9958 655.9634,-117.4122"/>
<polygon fill="#000000" stroke="#000000" points="655.2541,-120.84 665.778,-119.6158 656.7877,-114.01 655.2541,-120.84"/>
<text text-anchor="middle" x="554.8823" y="-114.2767" font-family="Times,serif" font-size="14.00" fill="#000000">[90.0]</text>
</g>
<!-- img_overlay -->
<g id="node11" class="node">
<title>img_overlay</title>
<ellipse fill="none" stroke="#000000" cx="707.3503" cy="-39.4767" rx="55.7903" ry="18"/>
<text text-anchor="middle" x="707.3503" y="-35.7767" font-family="Times,serif" font-size="14.00" fill="#000000">img_overlay</text>
</g>
<!-- bar&#45;&gt;img_overlay -->
<g id="edge10" class="edge">
<title>bar&#45;&gt;img_overlay</title>
<path fill="none" stroke="#000000" d="M369.2657,-62.0504C398.2719,-59.4778 445.8275,-55.3913 486.8823,-52.4767 538.9311,-48.7815 597.9457,-45.3412 641.811,-42.9291"/>
<polygon fill="#000000" stroke="#000000" points="642.2633,-46.4097 652.0574,-42.3692 641.8813,-39.4201 642.2633,-46.4097"/>
<text text-anchor="middle" x="554.8823" y="-56.2767" font-family="Times,serif" font-size="14.00" fill="#000000">[&#39;hello&#39;, 10.0, 10.0, 20.0]</text>
</g>
<!-- rpcimg_rotate -->
<g id="node13" class="node">
<title>rpcimg_rotate</title>
<ellipse fill="none" stroke="#000000" stroke-dasharray="1,5" cx="888.6295" cy="-130.4767" rx="57.9655" ry="37.4533"/>
<text text-anchor="middle" x="888.6295" y="-141.7767" font-family="Times,serif" font-size="14.00" fill="#000000">img_rotate</text>
<text text-anchor="middle" x="888.6295" y="-126.7767" font-family="Times,serif" font-size="14.00" fill="#000000">xxx.xxx.x.x</text>
<text text-anchor="middle" x="888.6295" y="-111.7767" font-family="Times,serif" font-size="14.00" fill="#000000">xxxxx</text>
</g>
<!-- img_rotate&#45;&gt;rpcimg_rotate -->
<g id="edge13" class="edge">
<title>img_rotate&#45;&gt;rpcimg_rotate</title>
<path fill="none" stroke="#000000" stroke-dasharray="1,5" d="M756.8856,-129.7499C776.435,-129.8578 799.2208,-129.9834 820.2921,-130.0997"/>
<polygon fill="#000000" stroke="#000000" points="820.4576,-133.6006 830.4768,-130.1559 820.4963,-126.6007 820.4576,-133.6006"/>
<text text-anchor="middle" x="800.8183" y="-134.2767" font-family="Times,serif" font-size="14.00" fill="#000000">rpc</text>
</g>
<!-- rpcimg_overlay -->
<g id="node12" class="node">
<title>rpcimg_overlay</title>
<ellipse fill="none" stroke="#000000" stroke-dasharray="1,5" cx="888.6295" cy="-37.4767" rx="60.623" ry="37.4533"/>
<text text-anchor="middle" x="888.6295" y="-48.7767" font-family="Times,serif" font-size="14.00" fill="#000000">img_overlay</text>
<text text-anchor="middle" x="888.6295" y="-33.7767" font-family="Times,serif" font-size="14.00" fill="#000000">xxx.xxx.x.x</text>
<text text-anchor="middle" x="888.6295" y="-18.7767" font-family="Times,serif" font-size="14.00" fill="#000000">xxxxx</text>
</g>
<!-- img_overlay&#45;&gt;rpcimg_overlay -->
<g id="edge12" class="edge">
<title>img_overlay&#45;&gt;rpcimg_overlay</title>
<path fill="none" stroke="#000000" stroke-dasharray="1,5" d="M763.2192,-38.8603C780.3438,-38.6713 799.4201,-38.4609 817.423,-38.2623"/>
<polygon fill="#000000" stroke="#000000" points="817.6236,-41.7604 827.5843,-38.1502 817.5463,-34.7608 817.6236,-41.7604"/>
<text text-anchor="middle" x="800.8183" y="-43.2767" font-family="Times,serif" font-size="14.00" fill="#000000">rpc</text>
</g>
<!-- rpc_example -->
<g id="node15" class="node">
<title>rpc_example</title>
<ellipse fill="none" stroke="#000000" stroke-dasharray="1,5" cx="49.9411" cy="-587.4767" rx="33.8824" ry="37.4533"/>
<text text-anchor="middle" x="49.9411" y="-598.7767" font-family="Times,serif" font-size="14.00" fill="#000000">rpc</text>
<text text-anchor="middle" x="49.9411" y="-583.7767" font-family="Times,serif" font-size="14.00" fill="#000000">[host]</text>
<text text-anchor="middle" x="49.9411" y="-568.7767" font-family="Times,serif" font-size="14.00" fill="#000000">[port]</text>
</g>
<!-- pipe_example -->
<g id="node16" class="node">
<title>pipe_example</title>
<ellipse fill="#8db6cd" stroke="#000000" cx="49.9411" cy="-514.4767" rx="27" ry="18"/>
<text text-anchor="middle" x="49.9411" y="-510.7767" font-family="Times,serif" font-size="14.00" fill="#000000">pipe</text>
</g>
<!-- call_example -->
<g id="node18" class="node">
<title>call_example</title>
<ellipse fill="none" stroke="#000000" cx="707.3503" cy="-476.4767" rx="27" ry="18"/>
<text text-anchor="middle" x="707.3503" y="-472.7767" font-family="Times,serif" font-size="14.00" fill="#000000">call</text>
</g>
<!-- pipe_example&#45;&gt;call_example -->
<g id="edge16" class="edge">
<title>pipe_example&#45;&gt;call_example</title>
<path fill="none" stroke="#000000" d="M76.938,-512.9162C180.2516,-506.9444 550.6942,-485.5318 670.0244,-478.6342"/>
<polygon fill="#000000" stroke="#000000" points="670.3471,-482.1215 680.1285,-478.0502 669.9431,-475.1331 670.3471,-482.1215"/>
<text text-anchor="middle" x="342.3823" y="-508.2767" font-family="Times,serif" font-size="14.00" fill="#000000">[arg1, arg2 ... ]</text>
</g>
<!-- call2_example -->
<g id="node19" class="node">
<title>call2_example</title>
<ellipse fill="none" stroke="#000000" cx="707.3503" cy="-545.4767" rx="51.9908" ry="18"/>
<text text-anchor="middle" x="707.3503" y="-541.7767" font-family="Times,serif" font-size="14.00" fill="#000000">another call</text>
</g>
<!-- pipe_example&#45;&gt;call2_example -->
<g id="edge17" class="edge">
<title>pipe_example&#45;&gt;call2_example</title>
<path fill="none" stroke="#000000" d="M76.6266,-517.5938C109.3781,-521.2937 166.6336,-527.3542 215.8823,-530.4767 370.0526,-540.2513 551.8467,-543.7022 645.1704,-544.8854"/>
<polygon fill="#000000" stroke="#000000" points="645.2446,-548.3864 655.2867,-545.0091 645.3302,-541.387 645.2446,-548.3864"/>
</g>
<!-- route_example -->
<g id="node17" class="node">
<title>route_example</title>
<ellipse fill="#b0e2ff" stroke="#000000" cx="49.9411" cy="-460.4767" rx="28.6953" ry="18"/>
<text text-anchor="middle" x="49.9411" y="-456.7767" font-family="Times,serif" font-size="14.00" fill="#000000">route</text>
</g>
<!-- route_example&#45;&gt;call_example -->
<g id="edge15" class="edge">
<title>route_example&#45;&gt;call_example</title>
<path fill="none" stroke="#b0e2ff" d="M78.6119,-461.1744C184.2849,-463.7463 551.9785,-472.6952 670.3382,-475.5759"/>
<polygon fill="#b0e2ff" stroke="#b0e2ff" points="670.2773,-479.0753 680.3595,-475.8198 670.4476,-472.0774 670.2773,-479.0753"/>
<text text-anchor="middle" x="342.3823" y="-474.2767" font-family="Times,serif" font-size="14.00" fill="#000000">[left compare] [value] [right compare] [args..]</text>
</g>
</g>
</svg>
